<mxfile host="app.diagrams.net" modified="2021-05-19T08:26:49.752Z" agent="5.0 (Windows NT 10.0; Win64; x64) AppleWebKit/537.36 (KHTML, like Gecko) Chrome/89.0.4389.90 Safari/537.36" etag="MwA63uvcv4_0NlbIbm3L" version="14.6.13" type="github">
  <diagram id="oK-42H29SPuLibGA3FoY" name="Page-1">
    <mxGraphModel dx="1422" dy="738" grid="1" gridSize="10" guides="1" tooltips="1" connect="1" arrows="1" fold="1" page="1" pageScale="1" pageWidth="827" pageHeight="1169" math="0" shadow="0">
      <root>
        <mxCell id="0" />
        <mxCell id="1" parent="0" />
        <mxCell id="FJxAa9fHk7rGvwItD7O2-1" value="MP" style="shape=umlLifeline;participant=umlActor;perimeter=lifelinePerimeter;whiteSpace=wrap;html=1;container=1;collapsible=0;recursiveResize=0;verticalAlign=top;spacingTop=36;outlineConnect=0;" vertex="1" parent="1">
          <mxGeometry x="90" y="120" width="20" height="300" as="geometry" />
        </mxCell>
        <mxCell id="FJxAa9fHk7rGvwItD7O2-2" value="unified-promotion（营销活动）" style="shape=umlLifeline;perimeter=lifelinePerimeter;whiteSpace=wrap;html=1;container=1;collapsible=0;recursiveResize=0;outlineConnect=0;" vertex="1" parent="1">
          <mxGeometry x="240" y="120" width="100" height="300" as="geometry" />
        </mxCell>
        <mxCell id="FJxAa9fHk7rGvwItD7O2-6" value="" style="html=1;points=[];perimeter=orthogonalPerimeter;" vertex="1" parent="FJxAa9fHk7rGvwItD7O2-2">
          <mxGeometry x="45" y="80" width="10" height="80" as="geometry" />
        </mxCell>
        <mxCell id="FJxAa9fHk7rGvwItD7O2-3" value="unified-fundin(充值/收款服务)" style="shape=umlLifeline;perimeter=lifelinePerimeter;whiteSpace=wrap;html=1;container=1;collapsible=0;recursiveResize=0;outlineConnect=0;" vertex="1" parent="1">
          <mxGeometry x="430" y="120" width="100" height="300" as="geometry" />
        </mxCell>
        <mxCell id="FJxAa9fHk7rGvwItD7O2-4" value="unified-promotion定时任务" style="shape=umlLifeline;perimeter=lifelinePerimeter;whiteSpace=wrap;html=1;container=1;collapsible=0;recursiveResize=0;outlineConnect=0;" vertex="1" parent="1">
          <mxGeometry x="610" y="120" width="100" height="300" as="geometry" />
        </mxCell>
        <mxCell id="FJxAa9fHk7rGvwItD7O2-10" value="" style="html=1;points=[];perimeter=orthogonalPerimeter;" vertex="1" parent="1">
          <mxGeometry x="655" y="200" width="10" height="80" as="geometry" />
        </mxCell>
        <mxCell id="FJxAa9fHk7rGvwItD7O2-11" value="" style="html=1;points=[];perimeter=orthogonalPerimeter;" vertex="1" parent="1">
          <mxGeometry x="475" y="200" width="10" height="80" as="geometry" />
        </mxCell>
      </root>
    </mxGraphModel>
  </diagram>
</mxfile>
